<svg xmlns="http://www.w3.org/2000/svg" width="1em" height="1em" viewBox="0 0 24 24"><path fill="white" d="M5 21q-.825 0-1.413-.587Q3 19.825 3 19V5q0-.825.587-1.413Q4.175 3 5 3h4.2q.35-.9 1.1-1.45Q11.05 1 12 1t1.7.55q.75.55 1.1 1.45H19q.825 0 1.413.587Q21 4.175 21 5v14q0 .825-.587 1.413Q19.825 21 19 21Zm7-16.75q.325 0 .538-.213q.212-.212.212-.537q0-.325-.212-.538q-.213-.212-.538-.212q-.325 0-.537.212q-.213.213-.213.538q0 .325.213.537q.212.213.537.213ZM12 13q1.45 0 2.475-1.025Q15.5 10.95 15.5 9.5q0-1.45-1.025-2.475Q13.45 6 12 6q-1.45 0-2.475 1.025Q8.5 8.05 8.5 9.5q0 1.45 1.025 2.475Q10.55 13 12 13Zm-7 6h14v-1.15q-1.35-1.325-3.137-2.088Q14.075 15 12 15t-3.862.762Q6.35 16.525 5 17.85V19Z"/></svg>